<svg width="42" height="33" viewBox="0 0 42 33" fill="none" xmlns="http://www.w3.org/2000/svg">
<path d="M20.9997 25.5208C16.0221 25.5208 11.9927 21.775 11.6219 17.0282L4.73794 11.8558C3.83298 12.9595 3.00021 14.1265 2.32821 15.4025C2.17809 15.6912 2.09988 16.0102 2.09988 16.3337C2.09988 16.6572 2.17809 16.9762 2.32821 17.2649C5.88703 24.0157 12.9325 28.5833 20.9997 28.5833C22.7656 28.5833 24.4692 28.3281 26.1112 27.9159L22.7059 25.3543C22.1435 25.4599 21.5724 25.5156 20.9997 25.5208ZM41.5939 29.2277L34.3392 23.7765C36.5429 21.9708 38.3554 19.7572 39.6711 17.2642C39.8213 16.9755 39.8995 16.6566 39.8995 16.3331C39.8995 16.0095 39.8213 15.6906 39.6711 15.4019C36.1123 8.65102 29.0669 4.08347 20.9997 4.08347C17.621 4.08745 14.2972 4.9144 11.3319 6.48879L2.98315 0.215179C2.87428 0.132816 2.74978 0.0721168 2.61677 0.0365504C2.48377 0.000984 2.34485 -0.00875264 2.20797 0.00789687C2.07109 0.0245464 1.93893 0.0672557 1.81903 0.133584C1.69914 0.199913 1.59386 0.28856 1.50922 0.394461L0.221012 2.00673C0.0501254 2.22045 -0.026448 2.49142 0.00813357 2.76003C0.0427151 3.02863 0.18562 3.27289 0.405417 3.43907L39.0162 32.4516C39.1251 32.5339 39.2496 32.5946 39.3826 32.6302C39.5156 32.6658 39.6545 32.6755 39.7914 32.6588C39.9283 32.6422 40.0604 32.5995 40.1803 32.5332C40.3002 32.4668 40.4055 32.3782 40.4901 32.2723L41.779 30.66C41.9498 30.4462 42.0263 30.1752 41.9916 29.9066C41.9569 29.638 41.8138 29.3938 41.5939 29.2277ZM29.5374 20.1678L26.9584 18.2296C27.1756 17.6193 27.2908 16.9791 27.2996 16.3334C27.3124 15.388 27.097 14.4529 26.6707 13.6031C26.2443 12.7534 25.6189 12.0127 24.8447 11.4406C24.0705 10.8684 23.1691 10.4808 22.2129 10.3088C21.2566 10.1368 20.2722 10.1852 19.3387 10.4502C19.7344 10.9716 19.9485 11.6022 19.9497 12.2501C19.9399 12.4657 19.906 12.6796 19.8486 12.8881L15.018 9.25841C16.696 7.89511 18.8129 7.14751 20.9997 7.14594C22.2409 7.14527 23.47 7.38245 24.6168 7.84393C25.7637 8.3054 26.8057 8.98212 27.6833 9.83538C28.561 10.6886 29.257 11.7017 29.7317 12.8167C30.2063 13.9317 30.4503 15.1267 30.4496 16.3334C30.4496 17.7134 30.1024 18.9996 29.5374 20.1685V20.1678Z" fill="#D2B896"/>
</svg>
