<svg width="45" height="44" viewBox="0 0 45 44" fill="none" xmlns="http://www.w3.org/2000/svg">
<path d="M42.9943 0H1.79143C0.800545 0 0 0.7865 0 1.76V42.24C0 43.2135 0.800545 44 1.79143 44H42.9943C43.9852 44 44.7857 43.2135 44.7857 42.24V1.76C44.7857 0.7865 43.9852 0 42.9943 0ZM34.4458 15.9335C34.4626 16.192 34.4626 16.4615 34.4626 16.7255C34.4626 24.7995 28.2038 34.1 16.7667 34.1C13.2398 34.1 9.97042 33.0935 7.2161 31.361C7.71994 31.416 8.20138 31.438 8.71642 31.438C11.6275 31.438 14.3034 30.47 16.4364 28.831C13.7044 28.776 11.4092 27.016 10.6254 24.596C11.5827 24.7335 12.4448 24.7335 13.4301 24.486C12.0234 24.2052 10.7591 23.4547 9.85183 22.3618C8.94459 21.269 8.45043 19.9012 8.4533 18.491V18.414C9.27624 18.8705 10.2447 19.151 11.258 19.1895C10.4062 18.6318 9.70763 17.8762 9.22424 16.9897C8.74085 16.1032 8.48758 15.1132 8.48689 14.1075C8.48689 12.969 8.7892 11.9295 9.33222 11.0275C10.8936 12.9158 12.8419 14.4603 15.0506 15.5604C17.2593 16.6605 19.6789 17.2917 22.1521 17.413C21.2732 13.2605 24.4306 9.9 28.2262 9.9C30.0176 9.9 31.6299 10.637 32.7663 11.825C34.1715 11.5665 35.5151 11.0495 36.7131 10.3565C36.2484 11.77 35.2743 12.9635 33.9812 13.717C35.2352 13.585 36.4444 13.244 37.564 12.7655C36.7187 13.9865 35.6606 15.07 34.4458 15.9335Z" fill="white"/>
</svg>
