<svg width="39" height="41" viewBox="0 0 39 41" fill="none" xmlns="http://www.w3.org/2000/svg">
<rect width="39.0004" height="40.6908" rx="19.3737" fill="#F8F8FA"/>
<path d="M26.0317 13.6442C23.7803 11.9581 21.0001 12.745 19.4992 14.6747C17.9982 12.745 15.2181 11.9487 12.9667 13.6442C11.7728 14.5435 11.0223 16.061 10.9711 17.6629C10.8517 21.2975 13.7854 24.2107 18.2626 28.679L18.3479 28.7633C18.996 29.4097 19.9938 29.4097 20.6419 28.7539L20.7358 28.6603C25.213 24.2014 28.1381 21.2881 28.0272 17.6535C27.9761 16.061 27.2256 14.5435 26.0317 13.6442ZM19.5845 27.2832L19.4992 27.3769L19.4139 27.2832C15.3545 23.2459 12.6767 20.5762 12.6767 17.869C12.6767 15.9955 13.9559 14.5904 15.6616 14.5904C16.9749 14.5904 18.2541 15.5177 18.7061 16.8011H20.3008C20.7443 15.5177 22.0235 14.5904 23.3368 14.5904C25.0424 14.5904 26.3216 15.9955 26.3216 17.869C26.3216 20.5762 23.6438 23.2459 19.5845 27.2832Z" fill="#C2A688"/>
</svg>
