<svg width="60" height="60" viewBox="0 0 60 60" fill="none" xmlns="http://www.w3.org/2000/svg">
<g clip-path="url(#clip0_162_1770)">
<path d="M53.9063 36.2346C57.9479 31.5471 59.9583 26.8596 60 22.6292C60.0833 14.9534 53.8125 8.77762 42.3542 6.80887C28.9479 4.50028 12.3021 8.62528 0 16.4651C5.41667 13.3597 11.5208 10.8167 17.7812 9.64481C25.5417 7.24246 33.7188 6.66824 40.8333 7.91043C56.7188 10.6995 61.3333 22.8518 51.125 35.0628C50.0625 36.3284 48.8333 37.5354 47.4792 38.6487L31.7604 12.1175L11.9479 45.5745C5.11458 42.1292 3.97917 35.0042 9.95833 27.8557C12.125 25.2542 14.9896 22.9456 18.2396 21.0472C20.3229 19.6175 22.375 18.3987 24.6979 17.4495C17.9167 19.8284 11.9167 23.6487 7.86458 28.3362C4.97917 31.6878 3.55208 35.0276 3.52083 38.0511C3.46875 42.1643 5.95833 45.68 10.6458 47.7776L7.05208 53.8362H17.6354L19.9271 49.805C22.2396 49.9221 24.6458 49.805 27.0729 49.4886L24.6979 53.8362H38.8125L35.4167 47.6136C37.3542 46.9925 39.2604 46.2659 41.0938 45.4221L45.875 53.8362H56.4583L48.8125 40.8987C50.7396 39.4807 52.4583 37.9104 53.9063 36.2346ZM34.3646 45.6682L31.7604 40.9104L28.3542 47.1565C25.9167 47.5667 23.4896 47.7542 21.1458 47.6721L31.7604 29.0042L39.9583 43.4182C38.1667 44.2854 36.2812 45.0471 34.3646 45.6682Z" fill="#5961F9"/>
</g>
<defs>
<clipPath id="clip0_162_1770">
<rect width="60" height="60" fill="white"/>
</clipPath>
</defs>
</svg>
