<svg width="75" height="19" viewBox="0 0 75 19" fill="none" xmlns="http://www.w3.org/2000/svg">
<path d="M33.0567 11.2184H72.2876C73.6335 11.2184 74.7285 10.2378 74.7285 9.03255C74.7285 7.8273 73.6335 6.84668 72.2876 6.84668H33.0567C31.7108 6.84668 30.6158 7.8273 30.6158 9.03255C30.6158 10.2378 31.7108 11.2184 33.0567 11.2184Z" fill="#F2F2F2"/>
<path d="M42.8813 4H73.1187C74.156 4 75 3.10277 75 2C75 0.897233 74.156 0 73.1187 0H42.8813C41.844 0 41 0.897233 41 2C41 3.10277 41.844 4 42.8813 4Z" fill="#F2F2F2"/>
<path d="M2.44067 18.6169H72.2876C73.6335 18.6169 74.7285 17.6362 74.7285 16.431C74.7285 15.2257 73.6335 14.2451 72.2876 14.2451H2.44067C1.09481 14.2451 -0.000221252 15.2257 -0.000221252 16.431C-0.000221252 17.6362 1.09481 18.6169 2.44067 18.6169Z" fill="#F2F2F2"/>
</svg>
