<svg width="68" height="68" viewBox="0 0 68 68" fill="none" xmlns="http://www.w3.org/2000/svg">
<g clip-path="url(#clip0_114_429)">
<path d="M37.9696 49.494L39.5879 39.3795L28.6643 34.9292L27.046 50.3031L37.9696 49.494Z" fill="#A0616A"/>
<path d="M48.9488 64.442C48.011 64.8992 47.0552 65.312 46.0852 65.6781C44.1452 66.4122 42.1426 66.9661 40.0882 67.336C38.0803 67.6985 36.0188 67.8825 33.9573 67.8825C31.1722 67.8825 28.4033 67.5485 25.7255 66.8875C24.6769 66.6303 23.6193 66.3159 22.5796 65.9496C22.4706 65.9103 22.3599 65.8711 22.2509 65.8317C20.9611 65.3638 19.6928 64.8153 18.4727 64.1955C18.3083 64.1133 18.144 64.0292 17.9796 63.9399C17.7974 63.8471 17.617 63.7488 17.4348 63.647C17.2025 63.5201 16.9721 63.3879 16.7416 63.2539C15.9699 62.8073 15.2107 62.325 14.4854 61.8231L14.4372 61.791C14.3943 61.7606 14.3514 61.732 14.3103 61.7016C14.3371 61.5605 14.3621 61.4318 14.3853 61.3175C14.4747 60.8691 14.5336 60.6226 14.5336 60.6226L19.4248 50.5186L20.7879 47.7033L21.4524 47.4299L26.4722 45.3666H38.7413L42.6124 46.9672C42.6124 46.9672 42.6321 47.0405 42.6714 47.1816C43.0572 48.5661 45.3081 56.4263 48.8006 64.1168C48.8488 64.2239 48.8988 64.3329 48.9488 64.442Z" fill="#010851"/>
<path d="M35.2091 42.6308C41.3612 42.6308 46.3485 37.6435 46.3485 31.4914C46.3485 25.3393 41.3612 20.352 35.2091 20.352C29.057 20.352 24.0697 25.3393 24.0697 31.4914C24.0697 37.6435 29.057 42.6308 35.2091 42.6308Z" fill="#A0616A"/>
<path d="M21.4716 47.3337L21.4524 47.4296L18.0562 63.577L18.0268 63.7176L17.9795 63.94C17.7968 63.8467 17.6165 63.7483 17.435 63.6473C17.2024 63.5195 16.9723 63.3878 16.741 63.2536C15.9702 62.8075 15.211 62.3244 14.485 61.8233L14.4364 61.7901C14.3942 61.7607 14.3508 61.7313 14.3099 61.7019C13.7551 61.3146 13.2144 60.9107 12.6865 60.494C12.6827 60.4914 12.6802 60.4889 12.6763 60.485C11.7343 59.7258 10.8268 58.909 9.95888 58.0411C9.39904 57.4813 8.86091 56.9048 8.3458 56.313L8.42377 55.9858L8.43144 55.9526L8.52858 55.5359C9.39264 51.8866 12.3159 49.0861 15.9983 48.3805L20.8913 47.4436L21.4716 47.3337Z" fill="#010851"/>
<path d="M56.1642 59.72C54.7225 60.9473 53.1773 62.0586 51.5463 63.034C51.3873 63.1304 51.2247 63.225 51.0622 63.3197C50.3691 63.7199 49.6634 64.0932 48.9488 64.4416C48.011 64.8989 47.0553 65.3116 46.0853 65.6778L46.0102 65.324L42.1748 47.0866L42.6714 47.1813L47.6484 48.1352C51.3301 48.8409 54.2545 51.6419 55.1173 55.2915L56.0695 59.3235L56.1642 59.72Z" fill="#010851"/>
<path d="M58.0415 9.95841C51.6199 3.53676 43.0815 0 34 0C24.9184 0 16.3801 3.53676 9.95841 9.95841C3.53676 16.3801 0 24.9184 0 34C0 42.2891 2.94624 50.1257 8.34533 56.3134C8.86044 56.9052 9.39857 57.4817 9.95841 58.0415C10.8263 58.9094 11.7338 59.7262 12.6759 60.4854C12.6797 60.4893 12.6822 60.4918 12.6861 60.4944C18.7077 65.3579 26.1506 67.9999 34 67.9999C43.0815 67.9999 51.6199 64.4632 58.0415 58.0415C64.4632 51.6199 67.9999 43.0815 67.9999 34C67.9999 24.9184 64.4632 16.3801 58.0415 9.95841ZM56.1051 59.4744C53.9232 61.3725 51.4946 62.9932 48.8756 64.2842C47.9566 64.738 47.0145 65.1508 46.0508 65.5202C42.307 66.9569 38.2436 67.7443 34 67.7443C29.9046 67.7443 25.978 67.0106 22.3441 65.6685C20.8525 65.1189 19.4107 64.4657 18.0264 63.718C17.8231 63.6081 17.6212 63.4969 17.4205 63.3831C16.3647 62.7849 15.3434 62.1317 14.3631 61.4262C12.1722 59.854 10.177 58.0262 8.4233 55.9862C3.33481 50.0758 0.255639 42.3913 0.255639 34C0.255639 15.3933 15.3933 0.255639 34 0.255639C52.6066 0.255639 67.7443 15.3933 67.7443 34C67.7443 44.1591 63.2323 53.2841 56.1051 59.4744Z" fill="#3F3D56"/>
</g>
<defs>
<clipPath id="clip0_114_429">
<rect width="67.1796" height="67.1796" fill="white" transform="scale(1.01221)"/>
</clipPath>
</defs>
</svg>
