<svg width="68" height="68" viewBox="0 0 68 68" fill="none" xmlns="http://www.w3.org/2000/svg">
<g clip-path="url(#clip0_114_447)">
<path d="M37.9695 49.4945L39.5878 39.38L28.6642 34.9297L27.0459 50.3036L37.9695 49.4945Z" fill="#A0616A"/>
<path d="M48.9481 64.4426C48.0102 64.8998 47.0545 65.3126 46.0845 65.6787C44.1444 66.4128 42.1419 66.9667 40.0875 67.3366C38.0796 67.6991 36.0181 67.8831 33.9565 67.8831C31.1715 67.8831 28.4026 67.5491 25.7247 66.8881C24.6761 66.6309 23.6185 66.3165 22.5789 65.9502C22.4699 65.9109 22.3592 65.8717 22.2502 65.8323C20.9604 65.3644 19.692 64.8159 18.4719 64.196C18.3075 64.1139 18.1432 64.0298 17.9789 63.9405C17.7967 63.8477 17.6162 63.7494 17.434 63.6476C17.2018 63.5207 16.9713 63.3885 16.7409 63.2545C15.9692 62.8079 15.2099 62.3255 14.4846 61.8236L14.4364 61.7915C14.3935 61.7612 14.3507 61.7326 14.3096 61.7022C14.3363 61.5611 14.3614 61.4323 14.3846 61.3181C14.4739 60.8697 14.5329 60.6232 14.5329 60.6232L19.424 50.5192L20.7871 47.7038L21.4516 47.4305L26.4715 45.3672H38.7406L42.6117 46.9678C42.6117 46.9678 42.6314 47.0411 42.6707 47.1822C43.0565 48.5667 45.3074 56.4269 48.7999 64.1174C48.848 64.2245 48.8981 64.3335 48.9481 64.4426Z" fill="#010851"/>
<path d="M35.2098 42.6314C41.3619 42.6314 46.3492 37.6441 46.3492 31.492C46.3492 25.3398 41.3619 20.3525 35.2098 20.3525C29.0576 20.3525 24.0703 25.3398 24.0703 31.492C24.0703 37.6441 29.0576 42.6314 35.2098 42.6314Z" fill="#A0616A"/>
<path d="M21.4715 47.335L21.4523 47.4308L18.0562 63.5783L18.0268 63.7189L17.9795 63.9413C17.7967 63.848 17.6165 63.7495 17.435 63.6486C17.2023 63.5208 16.9722 63.3891 16.7409 63.2549C15.9701 62.8088 15.2109 62.3256 14.4849 61.8246L14.4363 61.7913C14.3941 61.762 14.3507 61.7325 14.3098 61.7032C13.755 61.3159 13.2144 60.912 12.6865 60.4953C12.6826 60.4927 12.6801 60.4901 12.6762 60.4863C11.7342 59.7271 10.8267 58.9103 9.95879 58.0424C9.39894 57.4825 8.86082 56.9061 8.3457 56.3143L8.42368 55.9871L8.43135 55.9538L8.52849 55.5371C9.39255 51.8879 12.3158 49.0874 15.9983 48.3818L20.8912 47.4449L21.4715 47.335Z" fill="#010851"/>
<path d="M56.1642 59.7213C54.7226 60.9486 53.1773 62.0599 51.5463 63.0353C51.3873 63.1318 51.2248 63.2263 51.0622 63.321C50.3691 63.7212 49.6634 64.0946 48.9489 64.443C48.011 64.9002 47.0553 65.313 46.0853 65.6791L46.0102 65.3253L42.1748 47.0879L42.6714 47.1826L47.6484 48.1365C51.3302 48.8422 54.2545 51.6432 55.1174 55.2928L56.0695 59.3248L56.1642 59.7213Z" fill="#010851"/>
<path d="M48.0377 34.47C47.7483 35.549 46.2924 40.3705 42.5641 41.3852C41.8317 41.5853 40.0846 41.8157 40.5473 41.3852C40.6526 41.287 40.7545 41.1905 40.8563 41.0958C44.9025 37.2907 46.5532 34.9649 45.7993 29.8021C45.3205 26.515 39.8684 23.5299 36.8011 23.2334C35.5078 23.1085 33.8571 23.546 32.7674 24.6733C30.9685 26.5311 31.265 32.2335 30.2683 35.583C30.0003 36.4797 29.6412 37.2086 29.1249 37.6498C28.8034 37.9249 28.5979 37.5747 28.4461 37.0013C28.1228 35.7829 28.0388 33.5518 27.5797 34.1823C26.2524 36.0099 27.5172 38.4322 27.8995 39.3666C27.9781 39.5578 28.0584 39.7416 28.1388 39.9168V39.9185C28.1853 40.0185 28.2335 40.1186 28.28 40.2134V40.2151C29.5554 42.816 31.0882 43.7468 32.4387 45.3671C32.9693 46.0012 33.4713 46.739 33.9197 47.7252C34.2269 48.4005 34.4484 49.0793 34.6003 49.7455C35.3738 53.0862 34.4556 56.1213 34.2073 56.9467C33.6874 58.6652 32.7942 61.618 30.1736 63.2848C26.883 65.3786 23.88 63.5332 22.4438 65.5214C22.4259 65.5447 22.4098 65.5679 22.3937 65.5911C22.3401 65.6715 22.2919 65.7519 22.2508 65.8321C20.961 65.3643 19.6927 64.8158 18.4726 64.1959C18.3082 64.1138 18.1438 64.0297 17.9795 63.9404C17.7973 63.8476 17.6169 63.7493 17.4346 63.6475C17.4275 63.5081 17.4203 63.3689 17.415 63.2277C17.3096 60.8107 17.4686 58.1542 18.0706 55.505C18.4565 53.8133 18.8388 52.1357 19.4247 50.5191C19.807 49.4652 20.275 48.4361 20.8913 47.4447C21.3844 46.6479 21.9703 45.8744 22.6813 45.1312C24.2427 43.5002 25.6307 42.8197 25.8505 41.0975C26.1648 38.6394 23.6049 37.8999 22.6813 34.1823C22.0508 31.6403 21.3915 27.9764 22.0311 25.5075C22.6349 23.1746 23.1601 21.1505 24.9126 19.1675C25.3342 18.6923 28.7945 15.3874 32.8032 14.8444C34.6503 14.5961 36.2974 16.9614 38.5304 17.4704C41.0975 18.0547 42.5677 18.3888 44.004 19.4873C46.4317 21.3416 47.1159 24.1142 47.7501 26.6902C48.2467 28.7053 48.8898 31.3117 48.0377 34.47Z" fill="#2F2E41"/>
<path d="M58.0416 9.95842C51.6199 3.53676 43.0816 0 34 0C24.9184 0 16.3801 3.53676 9.95842 9.95842C3.53676 16.3801 0 24.9184 0 34C0 42.2891 2.94624 50.1257 8.34534 56.3135C8.86045 56.9053 9.39858 57.4817 9.95842 58.0416C10.8263 58.9095 11.7338 59.7262 12.6759 60.4855C12.6797 60.4893 12.6823 60.4919 12.6861 60.4944C18.7077 65.358 26.1506 68 34 68C43.0816 68 51.6199 64.4632 58.0416 58.0416C64.4632 51.6199 68 43.0816 68 34C68 24.9184 64.4632 16.3801 58.0416 9.95842ZM56.1051 59.4744C53.9232 61.3726 51.4947 62.9933 48.8756 64.2843C47.9566 64.738 47.0146 65.1509 46.0508 65.5203C42.307 66.957 38.2436 67.7444 34 67.7444C29.9047 67.7444 25.978 67.0107 22.3441 65.6686C20.8525 65.1189 19.4107 64.4658 18.0264 63.718C17.8232 63.6081 17.6212 63.4969 17.4205 63.3832C16.3647 62.785 15.3435 62.1318 14.3631 61.4262C12.1723 59.8541 10.177 58.0262 8.42331 55.9862C3.33482 50.0759 0.255639 42.3913 0.255639 34C0.255639 15.3933 15.3933 0.255639 34 0.255639C52.6067 0.255639 67.7444 15.3933 67.7444 34C67.7444 44.1591 63.2323 53.2841 56.1051 59.4744Z" fill="#3F3D56"/>
</g>
<defs>
<clipPath id="clip0_114_447">
<rect width="68" height="68" fill="white"/>
</clipPath>
</defs>
</svg>
