<svg width="44" height="44" viewBox="0 0 44 44" fill="none" xmlns="http://www.w3.org/2000/svg">
<g opacity="0.8" clip-path="url(#clip0_114_489)">
<path d="M22.0003 10.7835C15.7932 10.7835 10.7839 15.7928 10.7839 21.9999C10.7839 28.2069 15.7932 33.2163 22.0003 33.2163C28.2073 33.2163 33.2167 28.2069 33.2167 21.9999C33.2167 15.7928 28.2073 10.7835 22.0003 10.7835ZM22.0003 29.2897C17.9862 29.2897 14.7104 26.0139 14.7104 21.9999C14.7104 17.9858 17.9862 14.71 22.0003 14.71C26.0143 14.71 29.2901 17.9858 29.2901 21.9999C29.2901 26.0139 26.0143 29.2897 22.0003 29.2897ZM33.676 7.71002C32.2268 7.71002 31.0565 8.88034 31.0565 10.3296C31.0565 11.7788 32.2268 12.9491 33.676 12.9491C35.1253 12.9491 36.2956 11.7842 36.2956 10.3296C36.296 9.98543 36.2285 9.64461 36.097 9.32659C35.9656 9.00858 35.7726 8.71964 35.5293 8.47631C35.286 8.23297 34.997 8.04004 34.679 7.90855C34.361 7.77705 34.0202 7.70959 33.676 7.71002ZM43.8643 21.9999C43.8643 18.9811 43.8917 15.9897 43.7221 12.9764C43.5526 9.47643 42.7542 6.37018 40.1948 3.81081C37.6299 1.24596 34.5292 0.452994 31.0292 0.283462C28.0104 0.113931 25.019 0.141275 22.0057 0.141275C18.987 0.141275 15.9956 0.113931 12.9823 0.283462C9.48229 0.452994 6.37604 1.25143 3.81667 3.81081C1.25182 6.37565 0.458853 9.47643 0.289322 12.9764C0.119791 15.9952 0.147134 18.9866 0.147134 21.9999C0.147134 25.0131 0.119791 28.01 0.289322 31.0233C0.458853 34.5233 1.25729 37.6296 3.81667 40.1889C6.38151 42.7538 9.48229 43.5467 12.9823 43.7163C16.001 43.8858 18.9924 43.8585 22.0057 43.8585C25.0245 43.8585 28.0159 43.8858 31.0292 43.7163C34.5292 43.5467 37.6354 42.7483 40.1948 40.1889C42.7596 37.6241 43.5526 34.5233 43.7221 31.0233C43.8971 28.01 43.8643 25.0186 43.8643 21.9999ZM39.0518 34.8952C38.6526 35.8905 38.1713 36.6342 37.4003 37.3999C36.6292 38.171 35.8909 38.6522 34.8956 39.0514C32.019 40.1944 25.1885 39.9374 22.0003 39.9374C18.812 39.9374 11.976 40.1944 9.09948 39.0569C8.10417 38.6577 7.36042 38.1764 6.59479 37.4053C5.8237 36.6342 5.34245 35.896 4.94323 34.9007C3.80573 32.0186 4.06276 25.1882 4.06276 21.9999C4.06276 18.8116 3.80573 11.9756 4.94323 9.09909C5.34245 8.10378 5.8237 7.36003 6.59479 6.5944C7.36588 5.82878 8.10417 5.34206 9.09948 4.94284C11.976 3.80534 18.812 4.06237 22.0003 4.06237C25.1885 4.06237 32.0245 3.80534 34.901 4.94284C35.8964 5.34206 36.6401 5.82331 37.4057 6.5944C38.1768 7.36549 38.6581 8.10378 39.0573 9.09909C40.1948 11.9756 39.9378 18.8116 39.9378 21.9999C39.9378 25.1882 40.1948 32.0186 39.0518 34.8952Z" fill="white"/>
</g>
<defs>
<clipPath id="clip0_114_489">
<rect width="44" height="44" fill="white"/>
</clipPath>
</defs>
</svg>
