<svg width="285" height="263" viewBox="0 0 285 263" fill="none" xmlns="http://www.w3.org/2000/svg">
<g clip-path="url(#clip0_154_4665)">
<path d="M15.5922 93.2245C20.2467 101.857 30.1253 105.562 30.1253 105.562C30.1253 105.562 32.4574 95.2724 27.8029 86.6403C23.1484 78.0083 13.2698 74.3027 13.2698 74.3027C13.2698 74.3027 10.9377 84.5925 15.5922 93.2245Z" fill="#2F2E41"/>
<path d="M18.7915 90.3838C27.1948 95.4396 30.4312 105.482 30.4312 105.482C30.4312 105.482 20.0431 107.327 11.6397 102.271C3.2364 97.2153 0 87.1732 0 87.1732C0 87.1732 10.3881 85.3281 18.7915 90.3838Z" fill="#D2B896"/>
<path d="M285 233.584C285 242.685 263.37 262.422 236.688 262.422C210.007 262.422 188.377 242.685 188.377 233.584C188.377 224.484 210.007 229.465 236.688 229.465C263.37 229.465 285 224.484 285 233.584Z" fill="#3F3D56"/>
<path opacity="0.1" d="M285 233.584C285 242.685 263.37 262.422 236.688 262.422C210.007 262.422 188.377 242.685 188.377 233.584C188.377 224.484 210.007 229.465 236.688 229.465C263.37 229.465 285 224.484 285 233.584Z" fill="black"/>
<path d="M236.688 250.063C263.37 250.063 285 242.685 285 233.585C285 224.484 263.37 217.106 236.688 217.106C210.007 217.106 188.377 224.484 188.377 233.585C188.377 242.685 210.007 250.063 236.688 250.063Z" fill="#3F3D56"/>
<path d="M182.01 112.993H28.4624V200.628H182.01V112.993Z" fill="#F1F1F1"/>
<path d="M253.729 29.1032C261.899 29.1032 268.522 22.8993 268.522 15.2464C268.522 7.59353 261.899 1.38965 253.729 1.38965C245.559 1.38965 238.936 7.59353 238.936 15.2464C238.936 22.8993 245.559 29.1032 253.729 29.1032Z" fill="#2F2E41"/>
<path d="M210.66 101.57L206.915 106.813C206.915 106.813 188.939 110.558 195.68 116.176C202.421 121.794 212.158 110.933 212.158 110.933L217.401 104.192L210.66 101.57Z" fill="#FFB8B8"/>
<path d="M230.135 42.0244C230.135 42.0244 225.266 42.0244 224.143 48.7655C223.019 55.5067 221.896 77.9771 221.896 77.9771C221.896 77.9771 206.166 98.575 208.788 101.197C211.409 103.818 214.406 108.687 216.278 107.938C218.151 107.189 234.254 85.0927 234.254 85.0927L230.135 42.0244Z" fill="#D2B896"/>
<path opacity="0.1" d="M230.135 42.0244C230.135 42.0244 225.266 42.0244 224.143 48.7655C223.019 55.5067 221.896 77.9771 221.896 77.9771C221.896 77.9771 206.166 98.575 208.788 101.197C211.409 103.818 214.406 108.687 216.278 107.938C218.151 107.189 234.254 85.0927 234.254 85.0927L230.135 42.0244Z" fill="black"/>
<path d="M245.115 22.9248C245.115 22.9248 244.741 37.5306 240.246 38.2796C235.752 39.0286 237.25 43.8972 237.25 43.8972C237.25 43.8972 251.856 52.5109 261.593 43.8972L263.466 39.4031C263.466 39.4031 256.725 34.5345 259.721 27.7934L245.115 22.9248Z" fill="#FFB8B8"/>
<path d="M220.023 112.807C220.023 112.807 197.927 154.002 206.166 166.736C214.405 179.469 226.764 205.684 228.636 205.684C230.509 205.684 240.995 200.441 240.246 197.071C239.497 193.7 228.262 168.608 225.266 166.361C222.27 164.114 223.768 158.122 224.142 157.748C224.517 157.373 236.876 137.524 236.876 137.524C236.876 137.524 236.501 168.983 237.999 173.851C239.497 178.72 237.625 213.549 239.497 215.047C241.37 216.545 249.983 219.167 251.481 216.92C252.979 214.673 257.474 180.592 254.477 172.728L260.095 118.799L220.023 112.807Z" fill="#2F2E41"/>
<path d="M240.246 212.799L230.884 230.026C230.884 230.026 217.402 239.763 226.764 241.261C236.127 242.759 241.744 239.014 241.744 239.014L249.984 233.022V215.795L240.246 212.799Z" fill="#2F2E41"/>
<path d="M227.513 203.063L232.382 214.672C232.382 214.672 234.254 219.541 232.382 220.665C230.509 221.788 225.266 228.529 228.637 229.278C229.315 229.411 230.004 229.48 230.695 229.483C233.501 229.53 236.289 229.009 238.889 227.951C241.489 226.893 243.848 225.32 245.824 223.326L248.86 220.29C248.86 220.29 238.46 196.341 238.604 196.519C238.748 196.696 227.513 203.063 227.513 203.063Z" fill="#2F2E41"/>
<path d="M254.478 31.9128C261.51 31.9128 267.211 26.2119 267.211 19.1795C267.211 12.1472 261.51 6.44629 254.478 6.44629C247.445 6.44629 241.744 12.1472 241.744 19.1795C241.744 26.2119 247.445 31.9128 254.478 31.9128Z" fill="#FFB8B8"/>
<path d="M261.781 36.9674L257.848 40.8997C257.848 40.8997 245.864 45.3938 240.246 40.8997C240.246 40.8997 242.306 36.5929 242.306 36.9674C242.306 37.3419 226.015 39.7762 224.517 46.5174C223.019 53.2585 225.641 64.8682 225.641 64.8682C225.641 64.8682 215.154 114.303 219.274 115.427C223.394 116.55 261.968 125.913 261.593 118.797C261.219 111.682 264.589 82.47 264.589 82.47L277.697 57.3781C277.697 57.3781 275.825 49.1389 271.33 46.5174C266.836 43.8958 261.781 36.9674 261.781 36.9674Z" fill="#D2B896"/>
<path d="M245.115 110.185L240.246 113.181C240.246 113.181 221.521 125.914 231.258 128.161C240.995 130.408 246.613 119.173 246.613 119.173L250.358 114.679L245.115 110.185Z" fill="#FFB8B8"/>
<path opacity="0.1" d="M272.828 55.1318L276.199 58.5024C276.199 58.5024 278.446 89.961 273.952 96.3276C269.458 102.694 248.86 119.922 247.736 118.798C246.613 117.675 239.497 112.057 240.995 111.308C242.493 110.559 262.411 89.7478 262.411 89.7478L260.844 60.7494L272.828 55.1318Z" fill="black"/>
<path d="M274.326 54.0088L277.697 57.3794C277.697 57.3794 279.944 88.838 275.45 95.2046C270.956 101.571 250.358 118.799 249.234 117.675C248.111 116.551 240.995 110.934 242.493 110.185C243.991 109.436 263.909 88.6247 263.909 88.6247L262.342 59.6264L274.326 54.0088Z" fill="#D2B896"/>
<path d="M249.212 1.09182C249.212 1.09182 244.883 -0.482132 238.981 2.86252L242.129 3.64949C242.129 3.64949 237.407 4.04298 236.817 10.3388H238.981C238.981 10.3388 237.604 15.8476 238.981 17.4216L239.866 15.7493L242.424 20.8646L243.014 18.3069L244.195 18.7004L244.981 14.5688C244.981 14.5688 246.949 17.5199 248.523 17.7167V15.159C248.523 15.159 252.851 20.0776 254.228 19.8809L252.261 17.1265L255.015 17.7167L253.835 15.7492L260.918 17.7167L259.344 15.7492L264.262 17.3232L266.623 18.3069C266.623 18.3069 269.968 10.6339 265.246 5.32181C260.524 0.00972077 253.638 -1.17073 249.212 1.09182Z" fill="#2F2E41"/>
<path d="M125.497 160.588C125.182 160.786 124.857 160.97 124.52 161.14C121.784 162.516 118.614 162.75 115.706 161.792C112.797 160.834 110.388 158.761 109.006 156.028L106.514 151.088L108.187 150.245L110.678 155.185C111.25 156.321 112.04 157.332 113.003 158.162C113.966 158.992 115.083 159.624 116.29 160.023C117.498 160.421 118.772 160.577 120.04 160.483C121.307 160.389 122.544 160.045 123.679 159.473C124.815 158.9 125.826 158.11 126.655 157.146C127.485 156.183 128.117 155.065 128.514 153.858C128.912 152.65 129.067 151.376 128.972 150.108C128.877 148.84 128.533 147.604 127.96 146.469L117.498 125.724C116.925 124.589 116.135 123.578 115.172 122.749C114.209 121.919 113.092 121.288 111.885 120.89C110.678 120.492 109.404 120.336 108.137 120.431C106.87 120.525 105.633 120.868 104.499 121.441C103.364 122.013 102.353 122.803 101.523 123.766C100.694 124.729 100.063 125.846 99.6648 127.053C99.2671 128.26 99.111 129.534 99.2055 130.801C99.3 132.069 99.6432 133.305 100.216 134.44L103.92 141.785L102.248 142.628L98.5433 135.283C97.165 132.548 96.9294 129.377 97.8884 126.468C98.8474 123.559 100.922 121.151 103.657 119.771C106.392 118.392 109.562 118.156 112.471 119.114C115.38 120.072 117.79 122.146 119.17 124.881L129.632 145.626C130.924 148.188 131.216 151.139 130.452 153.905C129.687 156.671 127.921 159.053 125.497 160.588Z" fill="#3F3D56"/>
<path d="M126.508 186.193C126.198 186.388 125.877 186.57 125.543 186.739C122.807 188.115 119.637 188.349 116.729 187.391C113.82 186.432 111.411 184.36 110.029 181.627L99.5664 160.882C98.187 158.146 97.9506 154.975 98.9093 152.066C99.8681 149.156 101.943 146.747 104.679 145.367C107.414 143.988 110.585 143.751 113.494 144.71C116.404 145.669 118.813 147.744 120.193 150.479L122.941 155.929L121.269 156.772L118.521 151.322C117.948 150.188 117.158 149.177 116.195 148.347C115.232 147.518 114.115 146.886 112.908 146.489C111.701 146.091 110.427 145.935 109.16 146.029C107.893 146.124 106.656 146.467 105.522 147.039C104.387 147.612 103.376 148.402 102.546 149.365C101.717 150.328 101.086 151.445 100.688 152.652C100.29 153.859 100.134 155.133 100.229 156.4C100.323 157.667 100.666 158.904 101.239 160.038L111.701 180.784C112.273 181.919 113.063 182.931 114.026 183.761C114.989 184.591 116.106 185.223 117.313 185.621C118.521 186.02 119.795 186.176 121.063 186.082C122.33 185.987 123.567 185.644 124.702 185.072C125.838 184.499 126.849 183.708 127.678 182.745C128.508 181.782 129.14 180.664 129.537 179.456C129.935 178.249 130.09 176.975 129.995 175.707C129.9 174.439 129.556 173.202 128.983 172.068L125.382 164.927L127.054 164.084L130.655 171.225C131.945 173.789 132.234 176.742 131.468 179.508C130.701 182.275 128.934 184.657 126.508 186.193Z" fill="#3F3D56"/>
<path d="M201.11 201.377H28.0879V105.129H201.11V201.377ZM28.8369 200.628H200.361V105.878H28.8369V200.628Z" fill="#2F2E41"/>
</g>
<defs>
<clipPath id="clip0_154_4665">
<rect width="285" height="262.421" fill="white"/>
</clipPath>
</defs>
</svg>
