<svg width="46" height="46" viewBox="0 0 46 46" fill="none" xmlns="http://www.w3.org/2000/svg">
<path d="M31.1073 34.5003L22.9998 29.6128L14.8923 34.5003L17.039 25.2811L9.88982 19.0903L19.3198 18.2853L22.9998 9.58365L26.6798 18.2661L36.1098 19.0711L28.9606 25.2619L31.1073 34.5003ZM22.9998 3.83366C12.4007 3.83366 3.83317 12.4586 3.83317 23.0003C3.83317 28.0836 5.8525 32.9587 9.44694 36.5531C11.2267 38.3329 13.3396 39.7447 15.665 40.7079C17.9904 41.6712 20.4828 42.1669 22.9998 42.1669C28.0831 42.1669 32.9582 40.1476 36.5526 36.5531C40.1471 32.9587 42.1664 28.0836 42.1664 23.0003C42.1664 20.4833 41.6707 17.9909 40.7074 15.6655C39.7442 13.3401 38.3324 11.2272 36.5526 9.44744C34.7729 7.66765 32.6599 6.25585 30.3345 5.29263C28.0091 4.32942 25.5168 3.83366 22.9998 3.83366Z" fill="#010851"/>
</svg>
