<svg width="348" height="222" viewBox="0 0 348 222" fill="none" xmlns="http://www.w3.org/2000/svg">
<rect x="293.767" y="15.1348" width="38.8377" height="36.7558" rx="18.3352" fill="#F8F8FA"/>
<path d="M319.69 27.4597C317.448 25.9366 314.679 26.6474 313.184 28.3904C311.69 26.6474 308.921 25.9281 306.679 27.4597C305.49 28.272 304.743 29.6428 304.692 31.0897C304.573 34.3728 307.494 37.0043 311.953 41.0405L312.038 41.1167C312.683 41.7005 313.677 41.7005 314.322 41.1082L314.416 41.0236C318.874 36.9959 321.787 34.3643 321.677 31.0812C321.626 29.6428 320.879 28.272 319.69 27.4597ZM313.269 39.7797L313.184 39.8643L313.099 39.7797C309.057 36.1328 306.39 33.7212 306.39 31.2758C306.39 29.5835 307.664 28.3143 309.363 28.3143C310.671 28.3143 311.945 29.152 312.395 30.3112H313.983C314.424 29.152 315.698 28.3143 317.006 28.3143C318.705 28.3143 319.978 29.5835 319.978 31.2758C319.978 33.7212 317.312 36.1328 313.269 39.7797Z" fill="#C2A688"/>
</svg>
