<svg width="23" height="23" viewBox="0 0 23 23" fill="none" xmlns="http://www.w3.org/2000/svg">
<path d="M11.4907 1.9165C6.20074 1.9165 1.91699 6.20984 1.91699 11.4998C1.91699 16.7898 6.20074 21.0832 11.4907 21.0832C16.7903 21.0832 21.0837 16.7898 21.0837 11.4998C21.0837 6.20984 16.7903 1.9165 11.4907 1.9165ZM18.132 7.6665H15.3049C15.005 6.47957 14.5608 5.33382 13.9824 4.25484C15.7305 4.85667 17.2035 6.06774 18.132 7.6665ZM11.5003 3.8715C12.2957 5.0215 12.9187 6.29609 13.3307 7.6665H9.66991C10.082 6.29609 10.7049 5.0215 11.5003 3.8715ZM4.08283 13.4165C3.92949 12.8032 3.83366 12.1611 3.83366 11.4998C3.83366 10.8386 3.92949 10.1965 4.08283 9.58317H7.32199C7.24533 10.2157 7.18783 10.8482 7.18783 11.4998C7.18783 12.1515 7.24533 12.784 7.32199 13.4165H4.08283ZM4.86866 15.3332H7.69574C8.00241 16.5311 8.44324 17.6811 9.01824 18.7448C7.26829 18.1463 5.79425 16.9344 4.86866 15.3332ZM7.69574 7.6665H4.86866C5.79425 6.0653 7.26829 4.85338 9.01824 4.25484C8.43982 5.33382 7.99568 6.47957 7.69574 7.6665ZM11.5003 19.1282C10.7049 17.9782 10.082 16.7036 9.66991 15.3332H13.3307C12.9187 16.7036 12.2957 17.9782 11.5003 19.1282ZM13.7428 13.4165H9.25783C9.17158 12.784 9.10449 12.1515 9.10449 11.4998C9.10449 10.8482 9.17158 10.2061 9.25783 9.58317H13.7428C13.8291 10.2061 13.8962 10.8482 13.8962 11.4998C13.8962 12.1515 13.8291 12.784 13.7428 13.4165ZM13.9824 18.7448C14.5574 17.6811 14.9982 16.5311 15.3049 15.3332H18.132C17.2035 16.9319 15.7305 18.143 13.9824 18.7448ZM15.6787 13.4165C15.7553 12.784 15.8128 12.1515 15.8128 11.4998C15.8128 10.8482 15.7553 10.2157 15.6787 9.58317H18.9178C19.0712 10.1965 19.167 10.8386 19.167 11.4998C19.167 12.1611 19.0712 12.8032 18.9178 13.4165H15.6787Z" fill="#010851"/>
</svg>
