<svg width="43" height="43" viewBox="0 0 43 43" fill="none" xmlns="http://www.w3.org/2000/svg">
<path d="M16.0224 5.37537C18.8464 5.37537 21.5546 6.49717 23.5514 8.49397C25.5482 10.4908 26.67 13.199 26.67 16.0229C26.67 18.6603 25.7035 21.0846 24.1146 22.9521L24.5569 23.3943H25.851L34.0414 31.5848L31.5843 34.0419L23.3938 25.8515V24.5574L22.9516 24.1151C21.0841 25.704 18.6598 26.6705 16.0224 26.6705C13.1985 26.6705 10.4903 25.5487 8.49348 23.5519C6.49667 21.5551 5.37488 18.8469 5.37488 16.0229C5.37488 13.199 6.49667 10.4908 8.49348 8.49397C10.4903 6.49717 13.1985 5.37537 16.0224 5.37537ZM16.0224 8.65155C11.9272 8.65155 8.65105 11.9277 8.65105 16.0229C8.65105 20.1182 11.9272 23.3943 16.0224 23.3943C20.1177 23.3943 23.3938 20.1182 23.3938 16.0229C23.3938 11.9277 20.1177 8.65155 16.0224 8.65155Z" fill="#999999"/>
</svg>
