<svg width="41" height="41" viewBox="0 0 41 41" fill="none" xmlns="http://www.w3.org/2000/svg">
<path d="M8.17399 19.3542C7.33373 19.3822 6.67531 20.0861 6.70336 20.9264C6.73141 21.7667 7.43531 22.4251 8.27557 22.397L8.17399 19.3542ZM34.062 21.0901C34.6363 20.4761 34.6041 19.5128 33.9902 18.9385L23.9847 9.57948C23.3707 9.00516 22.4074 9.03732 21.8331 9.65131C21.2588 10.2653 21.291 11.2286 21.9049 11.8029L30.7987 20.122L22.4796 29.0158C21.9052 29.6297 21.9374 30.593 22.5514 31.1674C23.1654 31.7417 24.1287 31.7095 24.703 31.0955L34.062 21.0901ZM8.27557 22.397L33.0011 21.5716L32.8995 18.5288L8.17399 19.3542L8.27557 22.397Z" fill="#010851"/>
</svg>
